<svg xmlns="http://www.w3.org/2000/svg" xmlns:xlink="http://www.w3.org/1999/xlink" viewBox="0 0 1089.48 1187.76"><defs><style>.cls-1{fill:#f4e9e6;}.cls-2{fill:#ff9100;}.cls-3{fill:#ff8200;}.cls-16,.cls-4{opacity:0.06;}.cls-21,.cls-22,.cls-5{fill:#1a1a1a;}.cls-6{fill:#e6e6e6;stroke:#000;}.cls-21,.cls-22,.cls-6{stroke-miterlimit:10;}.cls-7{opacity:0.49;}.cls-10,.cls-8{fill:#b52b0b;}.cls-14,.cls-19,.cls-9{fill:#fff;}.cls-10{opacity:0.45;}.cls-11{fill:url(#linear-gradient);}.cls-12{fill:#b3b3b3;}.cls-12,.cls-13,.cls-14,.cls-15{opacity:0.12;}.cls-15{fill:#ed1c24;}.cls-17{fill:red;}.cls-17,.cls-19{opacity:0.08;}.cls-18{fill:#231f20;}.cls-20{fill:#999;}.cls-21,.cls-22{stroke:#1a1a1a;}.cls-21{opacity:0.2;}.cls-22{opacity:0.22;}</style><linearGradient id="linear-gradient" x1="792.17" y1="1716" x2="792.17" y2="1716" gradientUnits="userSpaceOnUse"><stop offset="0" stop-color="#ed753d"/><stop offset="1" stop-color="#ed753d" stop-opacity="0"/></linearGradient></defs><g id="Layer_1" data-name="Layer 1"><path class="cls-1" d="M1728.41,1603.31c-51.34,17-70,40-77.19,58.75-8.82,23-5.29,46.41-23.35,72.43-5.31,7.64-13.32,14.66-26.06,20.93-126.27,62.14-367.52,117-367.52,117-76,15.27-182.28,48.66-305.54,129.86,13.56-73.14,24.08-126.53,31.94-159.52a285.76,285.76,0,0,0,8.32-58.7,207.25,207.25,0,0,0-1.31-33.92c55.4-6,135.58-27.4,216.43-77.72,66.32-41.28,96.83-82.8,188.56-174.71,43.31-43.39,115.26-73.84,197-144,21.08,39.35,45.52,80.87,72.37,123.47C1671,1523.06,1700,1565.06,1728.41,1603.31Z" transform="translate(-709.31 -814.52)"/><path class="cls-2" d="M1111.45,830.74c.41,6-17.77,7-43.18,21.12-25,13.91-44.4,27.27-82,57.32-17,13.58-25.73,20.23-36.15,30.32-19.23,18.64-37.89,42.22-69.31,87.39-30,43.08-24,109.84-49.07,172.56-15.72,38.16,19.68,71.27,1.55,113.87-4.66,11-23.84-1-36.87-3.32-3-1.06-3.94-4.08-4.9-6.11-.66-5.28-1.62-13.31-2.55-23.1-1.53-16.11-2.57-32.48-3.68-66.22-.8-24.63-1.21-37-1.13-43.11,0,0,1-85,28.41-125.54,3.36-5,7.11-9.52,7.11-9.52l.42-.51c13.84-16.75,28.46-64.56,28.46-64.56S876.3,880.52,902,859.68c.07-.06,1.58-1.27,3.58-3,1.13-1,2.05-1.81,2.69-2.39a210.1,210.1,0,0,1,72.32-33.73c34.06-8.5,60.88-6.09,79.28-4.27C1069.08,817.2,1110.82,821.33,1111.45,830.74Z" transform="translate(-709.31 -814.52)"/><path class="cls-1" d="M1530.35,1281c-24.66-56-24.52-69.53-44.64-98.49a287.59,287.59,0,0,0-39.8-45.5,212.56,212.56,0,0,0-23.31-18.79c-51.55-26.94-84.36-59.45-103.06-81.21-25.28-29.43-39.53-56.41-50.54-77.55-23.6-45.32-39-85.39-46.1-115-1.87-.27-11.13-5.08-24.39-8.48-11.39-2.93-18.73-4.5-23.1-3.77-9.33-.34-45.52-7.29-101.32,52.5-84.81,90.87-176.19,291-187.33,416.3-1.34,15-2.89,44.39-21.71,74.31-20.1,32-15.62,26.56-41.14,62.89-24.43,34.76-42,52-56.71,83.17-7.16,15.18-3.55,23.93-10.53,53.12-3.62,15.13-5.32,19.94-5.23,28.93.1,10.26,2.41,14,14.71,45,0,0,14.43,36.32,28.76,56.53a34.17,34.17,0,0,0,6.9,7,21.37,21.37,0,0,0,3.5,2.1,13.06,13.06,0,0,0,3.93,1.36c0-.08-.59-.35-.58-.43.16-.86,80.54,22.85,164.13,18.92a420.2,420.2,0,0,0,74.24-10.3c3.47-.81,18.8-4.46,41-11.89a598.59,598.59,0,0,0,79.59-33.29c95.74-48.21,104.91-64,177-96.85,24.17-11,45.43-21.82,88-43.39,41.34-21-1.27-.26,39.79-23.2,0,0,33.62-18.78,44-37.33.3-.54.59-1.09.59-1.09s.78-1.44,1.5-2.94c2.8-5.83,17.33-52.11,48.17-82.73l4.9-14.08C1584.65,1363.65,1556.51,1340.45,1530.35,1281Z" transform="translate(-709.31 -814.52)"/><path class="cls-2" d="M847,1175.44c-12.7,52.09-14.34,46.64-15,60.43-1,20.67,3.1,35.68,28,136,1,4,2,9.06,3.29,12.94l.74-.41c0-2.46,0-4.47,1-6.48a44,44,0,0,1,6-7c19.94-31.18,37.88-57.33,58.81-88.51,1-2,1-3,2-5,17.94-24.14,30.9-49.28,41.86-75.43,10-22.13,11-46.27,14-70.41,5-26.15,10-50.29,15.94-76.44a602.14,602.14,0,0,1,18-60.34c11-30.18,19.93-60.35,42.86-84.49,23.92-24.14,54.82-33.19,83.73-52.3,2-2,4-3,7-5a143.21,143.21,0,0,0,21.18-20.65,121.45,121.45,0,0,0-45,1.44A116.36,116.36,0,0,0,1099,846.12s-3,1.58-6,3.36c-194.09,114.44-224,219.21-224,219.21C861.69,1094.17,863.61,1107.16,847,1175.44Z" transform="translate(-709.31 -814.52)"/><path id="Oreille_et_tache_droite" data-name="Oreille et tache droite" class="cls-2" d="M1100,1005.9c-21.45,44.92-47.27,80.51-63,102h0c-9.17,12.52-37.91,52.73-43,107.9-4.08,44.1,8.57,80.17,11.59,88.39a197.63,197.63,0,0,0,16.41,34.23c7.78,12.81,16.44,23.68,75,81.41,0,0,19.14,18.88,28,37.28,1,2,2.27,5.55,5,10.79a38.33,38.33,0,0,1,3,6.87c.28.93,1.13,3.89,1.13,3.89,27.92-29.5,54-44.62,72.55-52.93,5-2.25,13.12-5.38,29.32-11.64,38.53-14.88,53-19.19,66.73-24.57,35.32-13.81,59-31.83,84.49-51.16,11.14-8.46,44-34.17,67.85-65.46,1-1.31,15-19.77,21.92-39.1a143.6,143.6,0,0,0,5.74-21.68s1-5.6,1.39-11.27c3.36-44-90.42-126.34-90.42-126.34-117.34-94.55-153.37-237-173.17-229.86-2.71,1-9,6-21.53,16.06a275.36,275.36,0,0,0-23.07,20.36c-7.76,7.7-13.3,14.18-15.87,17.27-3.18,3.81-8.26,10.13-14.66,19.47-9.22,13.45-18.17,28.78-28.4,49.82C1107,988.2,1108.64,987.74,1100,1005.9Z" transform="translate(-709.31 -814.52)"/><path id="Oreille_et_tache_droite-2" data-name="Oreille et tache droite" class="cls-3" d="M1220.17,844.83" transform="translate(-709.31 -814.52)"/><path id="Oreille_et_tache_droite-3" data-name="Oreille et tache droite" class="cls-3" d="M1235.17,838.5" transform="translate(-709.31 -814.52)"/><path id="Oreille_et_tache_droite-4" data-name="Oreille et tache droite" class="cls-3" d="M1302.63,903.41" transform="translate(-709.31 -814.52)"/><path id="Oreille_et_tache_droite-5" data-name="Oreille et tache droite" class="cls-2" d="M1666.64,1321.24a83.18,83.18,0,0,0,9.4-19.66c7.66-24.25,4.16-55.25,9.11-69.9a117.8,117.8,0,0,1,8.79-19.61c11.4-21,30.68-38.68,30.68-38.68,45-42.51,68.82-108.64,72.71-129.75,1-5.18,1.33-10.2,1.33-10.2a114.3,114.3,0,0,0-5.1-39.23c-8.58-26.45-45.22-64.93-98.65-93.93a364.73,364.73,0,0,0-53.68-23.51c-40-14.36-76.56-20.71-96.6-24.27-26.83-4.77-42.25-5.91-138.48-11.19-111.94-6.13-157.92-8.25-162.18,6.53a9.65,9.65,0,0,0,.34,5.91c14.36,41.51,89.11,164.17,175.82,235.19,10.24,8.38,56.57,58.32,85.06,110.75,6,11.07,11.63,22.68,11.63,22.68,5.89,12.17,9.52,20.8,12.12,27.66,6.87,18.13,12.2,30.86,13.63,34.65,11.77,31.2,29.59,78.48,59,82.77C1628,1371.32,1655.65,1339.09,1666.64,1321.24Z" transform="translate(-709.31 -814.52)"/><g class="cls-4"><path d="M795.5,1703c.68.35,1.7-1.25,7.7-6.92,4.33-4.1,8-7.28,10.57-9.37l36.08,25.52q1.65,1.21,3.71,2.55a97.07,97.07,0,0,0,12.64,6.73,100.2,100.2,0,0,0,21.95,6.08c76.79,11.41,160.37-28.1,160.69-28.25h0c38.33-21.36,49.25-30.47,75.88-52.23,70.16-57.31,75.12-67.34,74.28-68.46-2.26-3-64.33,45.72-79.48,58.75l-1,.87c-3.29,2.83-8.23,7-14.22,12,0,0-83.13,44.25-89.78,46.54-11.5,4-7.43,5-115.11,21.76a67.65,67.65,0,0,1-24.39-3.7c-6.55-2.3-11.06-5.15-20.09-10.83-11.43-7.21-17.14-10.81-23.06-16.28-7.47-6.9-11.07-12.37-17-12-2.79.19-4.72,1.56-7,3.25C796.79,1687.06,793.61,1702,795.5,1703Z" transform="translate(-709.31 -814.52)"/></g><path d="M884,1720.92c12,2.39,22.91.84,44.75-2.25,4.41-.63,16.42-2.43,41-8.5,20.87-5.16,34.7-8.58,49.25-13.75,26.07-9.27,44.91-20.73,68-36,64.45-42.63,104.53-75.59,105-75s-44.22,42.53-110.5,82.75c-16.94,10.28-28,17-44.75,24.5-35.62,16.06-64,21.21-108.25,29.25a143,143,0,0,1-27,2.5,102.09,102.09,0,0,1-23.75-2.25c-6.5-1.5-21-4.84-33.75-16-8.35-7.31-15.88-17.91-27.25-22.25a10.49,10.49,0,0,0-5.75-.75c-8.55,1.49-14.78,19.75-15.33,19.5-.39-.18,3.46-11.64,8.83-17.25,1.22-1.28,4.64-4.85,8.5-5.75,8.44-2,15.74,9.61,26.92,19.5A97,97,0,0,0,884,1720.92Z" transform="translate(-709.31 -814.52)"/><path class="cls-5" d="M841.4,1236.38c.86,5.1,1.9,10.17,3.07,15.21v-.1c7.58,19.67,7.58,46,31.77,55.35-12.1-13,.19-36.33-15.26-47.22-4.94-3.48-11.7-3.18-16.27-7.29" transform="translate(-709.31 -814.52)"/><path d="M840,1236.78q1.34,7.65,3.07,15.21a1.51,1.51,0,0,0,3-.4v-.1l-3,.4c8,21.13,8.9,46.62,32.82,56.4,1.51.62,2.33-1.51,1.46-2.51-8-9.15-4.77-22.31-6.92-33.32a22.17,22.17,0,0,0-6.36-12.3c-5.24-4.86-12.79-4.56-18.25-8.89-1.49-1.18-3.63.93-2.12,2.12,5.48,4.34,13.11,4.14,18.25,8.89,4.63,4.27,5.82,10.49,6.27,16.5.75,10.18-.17,20.91,7,29.12l1.45-2.51c-22.5-9.19-23.27-34.52-30.72-54.3a1.5,1.5,0,0,0-2.94.4v.1l2.94-.4q-1.73-7.56-3.06-15.21c-.33-1.9-3.23-1.09-2.9.8Z" transform="translate(-709.31 -814.52)"/><path class="cls-6" d="M864.59,1298c-.79-1.32,4.33-4.44,5.13-3.09.49.84.59,4.2.87,5.75.15.8.15.8,2,4.12.72,1.27-3.82-2.39-5.73-4.28A14.75,14.75,0,0,1,864.59,1298Z" transform="translate(-709.31 -814.52)"/><g class="cls-7"><path class="cls-8" d="M839,1216.22c25.28-.17,48.81,13.67,62,35.1,1,1.64,3.6.14,2.59-1.51-13.69-22.32-38.22-36.77-64.55-36.59a1.5,1.5,0,0,0,0,3Z" transform="translate(-709.31 -814.52)"/></g><path class="cls-9" d="M1101,1336.37c11-11.33,14-28.33,22-41.33,25-13,54-3,81,0,9,1,18,1,25.67-3.66a51.78,51.78,0,0,1-7.4,4.76,51.22,51.22,0,0,1,7.4-4.76C1204,1308,1180,1332,1148,1334c-21,1-43-3-62.12,8.18" transform="translate(-709.31 -814.52)"/><path d="M1102,1337.43c8.24-8.81,12.08-20.09,16.83-30.93a54,54,0,0,1,3.93-8.14c2.16-3.25,5.74-4.34,9.34-5.47a68.16,68.16,0,0,1,21.2-2.84c14.08.13,27.9,3.22,41.76,5.31,11.9,1.79,24.39,3.48,35.33-2.68l-1.52-2.59a64.46,64.46,0,0,1-7.39,4.75l1.81,2.36a60,60,0,0,1,7.1-4.52l-1.52-2.59c-21.32,14-40.92,32.64-65.93,39.81-25.74,7.37-53.44-2.7-77.86,11-1.69.94-.17,3.53,1.51,2.59,24.86-14,53.93-3,80.08-11.64,24-7.92,42.93-25.6,63.72-39.2a1.5,1.5,0,0,0-1.52-2.59,65.69,65.69,0,0,0-7.7,5c-1.39,1.09.38,3.11,1.82,2.36a63.72,63.72,0,0,0,7.4-4.75,1.5,1.5,0,0,0-1.52-2.59c-13,7.33-29.47,3-43.32.7-13.13-2.2-26.49-4.56-39.85-3.5a62.91,62.91,0,0,0-18.41,4.13c-1.87.75-4.21,1.44-5.63,2.87-1.85,1.85-3.08,5.56-4.18,7.92-5.27,11.38-8.85,23.74-17.6,33.1-1.32,1.4.8,3.53,2.12,2.12Z" transform="translate(-709.31 -814.52)"/><path class="cls-10" d="M1089.89,1298.75c30.3-33.59,79.9-46.74,122.87-32.57,1.84.61,2.63-2.29.8-2.89-43.92-14.49-94.82-1-125.79,33.34-1.29,1.43.82,3.56,2.12,2.12Z" transform="translate(-709.31 -814.52)"/><path class="cls-5" d="M1147.33,1288.68c-4.07,2.54,8.83,41.25,21.71,40.7,7.9-.34,30-19.39,46.93-28.09,8.16-4.19,13.83-8.2,13.67-9.91-.24-2.6-.2,4.35-5.94,4-3.45-.21-14.21.36-19.73-.34-2.88-.36-22.26-3.59-25.83-4-5.67-.6-13.51-1.5-15.92-1.8C1154.25,1288.3,1148.63,1287.87,1147.33,1288.68Z" transform="translate(-709.31 -814.52)"/><path d="M1146.27,1287.62c-3.5,2.87.2,12.21,1.23,15.37,2.59,8,6.24,16.4,12,22.69,4.59,5,9.38,6.26,15.54,3.33,10.77-5.14,20.25-13.17,30.24-19.63,6.41-4.15,13.38-7.33,19.74-11.52,2.16-1.41,7.11-4.14,6-7.46a1.53,1.53,0,0,0-2.51-.66c-.45.35-.39.94-.71,1.34-1.62,2-2.36,2.65-5.17,2.76-4.22.16-8.5.12-12.72,0-6.69-.12-13.27-1.49-19.86-2.53-7-1.11-14-2-21.06-2.78-4.46-.51-8.91-1.12-13.37-1.52-2.85-.25-6.3-.86-9,.34-1.76.77-.24,3.36,1.52,2.59,3.61-1.59,10.43.36,14.13.8q6.46.78,12.94,1.48c7.28.79,14.5,2.06,21.73,3.2a118.16,118.16,0,0,0,20.34,1.4c2.86,0,6.62.62,9.35-.44a6.25,6.25,0,0,0,2.63-1.94c.48-.58,1-2.3,1.39-2.62l-2.51-.66c.86,2.59-14.1,9.42-15.82,10.38-5.74,3.21-11.21,6.9-16.65,10.61-5,3.42-9.95,6.93-15.07,10.17-3.2,2-7.55,5.36-11.51,5.52-7.59.29-13-11.9-15.49-17.49a75.68,75.68,0,0,1-4.44-12.6c-.35-1.37-2.14-6.88-.72-8S1147.75,1286.41,1146.27,1287.62Z" transform="translate(-709.31 -814.52)"/><path class="cls-5" d="M816.32,1681c-7-.71-18.3-4.57-47.42-48.52-8.55-12.9-10.42-24.83-22.09-47.24-1.16-12.67,2.36-29,10.47-36.56,4.64-2.53,4.66-4.85,9.3-8.65,3.48-1.27,5.8-3.8,8.12-6.33,1.16-1.27,3.48-1.27,4.63-2.54l3.48-3.8c20.87-13.93,41.74-22.79,66.09-19,13.91,2.53,26.66,8.86,39.42,16.46l3.47,3.8c24.35,13.93,45.22,43.06,35.94,73.46a66,66,0,0,0-3.47,8.86,155,155,0,0,1-13.92,16.47c-6.68,6.87-19.08,18.31-62.6,40.52C830,1677,821.1,1681.5,816.32,1681Z" transform="translate(-709.31 -814.52)"/><path d="M848.67,1505.33s-49.44-9.14-92.66,42.07a51,51,0,0,0-7.26,11.38c-1.45,3.21-6.94,14.88-3.49,27.41,1.51,5.46,5.46,11,7.72,16.3,2,4.76,3.93,9.6,5.92,14.38,8.18,19.66,22,38.54,36.76,53.6,5.74,5.86,12.34,11.5,20.66,12.39,2.3.25,2.28-3.45,0-3.69-6.24-.67-11.44-4.88-15.89-9.11-12.52-11.91-23.61-27.22-32.29-42.22-3.58-6.2-5.4-11.34-9.58-21.31-6.74-16.06-10.1-24.08-10.09-29,.07-15.93,12.41-28.31,20.67-36.59s17.23-13.74,21.74-16.5a109.79,109.79,0,0,1,14.45-7.67c1.39-.6,16.77-7.62,33.34-7.38,23.21.33,43.2,13.16,61.13,26.79,16.32,12.41,29.46,32.12,28.3,53.71-.91,17-11.67,29.89-23.59,40.69-10.14,9.19-22.08,16.31-33.85,23-11,6.24-22.17,12-33.43,17.66-6,3-13.9,8.33-20.91,7.93-2.31-.13-2.31,3.56,0,3.69,5.86.34,12-3.23,17.14-5.68,11.27-5.41,22.39-11.19,33.35-17.24,13.14-7.25,26.37-14.93,37.91-24.73,10.9-9.26,21.2-20.41,25.29-34.51,7.29-25.15-9.35-49.79-17.19-57.63-.89-.9-5-4.85-10.49-9.55,0,0-6.93-5.89-13.11-10.27C884.5,1519.91,867.38,1508.79,848.67,1505.33Z" transform="translate(-709.31 -814.52)"/><path d="M908.38,1628.18c-23.45,16.08-34.26,29.71-43,29.2-10.42-.6-22.21-18.17-19-30.62a13.57,13.57,0,0,1,1.7-4.07c6.19-9.84,21.21-5.5,50.21-11a53,53,0,0,0,14.71-4.55c10.19-5,16.34-12.56,16.22-12.7A49.41,49.41,0,0,1,908.38,1628.18Z" transform="translate(-709.31 -814.52)"/><path d="M907.47,1626.58c-7.79,5.41-15.24,11.26-22.6,17.25-4.76,3.88-10.19,9.32-16.15,11.2-14.29,4.49-29-25.4-16.19-34.37,4.67-3.26,11.43-3.23,16.81-3.66,7.7-.63,15.38-1.25,23-2.42,9.53-1.46,18.65-3.5,26.88-8.87,3.63-2.38,9.7-6.16,11.57-10.34,1-2.13-1.88-3.94-3.11-1.87-1.52,2.58-1.49,7.08-2.51,10a48.19,48.19,0,0,1-17.72,23.12c-1.88,1.35-.09,4.55,1.82,3.19a52.06,52.06,0,0,0,17.83-21.45,51.51,51.51,0,0,0,3-8.72c.23-1,.75-4.28.72-4.23l-3.11-1.87c-2.22,5-10.25,9.32-14.63,11.56-8.91,4.54-19.26,5.82-29,6.93-10,1.14-23.52-.33-32.61,5-18.18,10.73.52,48.7,19.45,41.09,5-2,9.32-5.83,13.49-9.2,8.17-6.59,16.3-13.17,24.92-19.15C911.2,1628.45,909.4,1625.25,907.47,1626.58Z" transform="translate(-709.31 -814.52)"/><path d="M763.62,1625.49c4.61,8.5,11.93,22,16.08,20.71,3-.94,4-9.7,2.78-16.13a30.33,30.33,0,0,0-1.84-5.73c-1.81-4.66-4.16-10.72-9.52-14-1.68-1-2.06-.82-4.27-1.81-9.89-4.45-18.31-17.32-14.59-13.31C753.29,1596.31,755,1609.55,763.62,1625.49Z" transform="translate(-709.31 -814.52)"/><path d="M762.06,1626.42a158.12,158.12,0,0,0,8.22,14c1.78,2.58,4,6.2,7.1,7.29,7,2.46,7.58-9.11,7.37-13.43-.39-8.34-4.45-19.14-11-24.37-3.85-3.06-8.69-4-12.58-7.26-2-1.68-7.88-5.21-8.4-8.11-.74.76-1.12.9-1.86,1.66.26.06,2.17,8.12,2.68,9.77a117.06,117.06,0,0,0,8.49,20.43c1.11,2.09,4.22.23,3.11-1.86a121.23,121.23,0,0,1-9.74-25.21c-.54-2-2.74-5.1-3.58-6.69-.68-1.28-2.47.86-2.22,2.27.7,3.86,6.25,8.08,9,10.36,6.26,5.23,13.75,6.23,17.9,14a43.09,43.09,0,0,1,4.24,11.29c.51,2.58,1.74,13.45-2.31,13.62-2.54.11-6.28-7.45-7.35-9.18-2.09-3.41-4-6.93-5.91-10.44C764,1622.48,760.93,1624.34,762.06,1626.42Z" transform="translate(-709.31 -814.52)"/><path class="cls-11" d="M792.17,1716" transform="translate(-709.31 -814.52)"/><path class="cls-12" d="M833.5,1525.5c-2.74-5.48-29.17-.11-47.5,13-13.54,9.69-18.47,20.61-19.5,23-2.43,5.64-5.13,11.91-3,14C771.11,1583,838.34,1535.18,833.5,1525.5Z" transform="translate(-709.31 -814.52)"/><path class="cls-13" d="M807,1618c-1.82,0-3.37,12.39-3.5,13.5-2.46,20.38,5.13,39.4,7.5,39C814.82,1669.85,810.71,1618.1,807,1618Z" transform="translate(-709.31 -814.52)"/><path class="cls-14" d="M1447.75,873.67c10.22-15,51.59-3.65,134.33,19,18.36,5,79.72,22.63,140.85,65.22,18.26,12.72,39.25,29.59,47.87,57.05,2.23,7.1,7.66,24.4,1.11,42.38-5.11,14-13.13,16.4-24.33,32.44-17.19,24.62-12.85,39.9-20,45.57C1692,1163.54,1416.47,919.48,1447.75,873.67Z" transform="translate(-709.31 -814.52)"/><path class="cls-14" d="M1048.62,840.49c-2.66-9.19-37.74-7-57.08-3.86-21.43,3.44-60.8,9.76-85.06,41.92-10.88,14.42-15.12,30.57-23.59,62.87-4.25,16.23-6.31,24.39-3.3,26.59,8.62,6.28,39-35.78,98.73-78C1021.62,859.33,1051.16,849.24,1048.62,840.49Z" transform="translate(-709.31 -814.52)"/><path class="cls-15" d="M1148.45,1148.22c-10.86.37-13.91,5.71-40.19,22.78-20.55,13.35-26.78,15.34-33.5,25.46-1.3,2-11.74,18-6.69,24.11,4.62,5.63,18.27-1.84,45.55-8a269.26,269.26,0,0,1,53.59-6.7c17.63-.26,38.72-.58,61.63,9.38,19.3,8.4,29,19.33,30.81,17.42,2.51-2.57-13-24.15-32.15-41.53-17.77-16.14-33.68-24.15-52.25-33.5C1157.11,1148.48,1151.94,1148.11,1148.45,1148.22Z" transform="translate(-709.31 -814.52)"/><path class="cls-15" d="M920.15,1197.28c-4.51,2.63-11-10.85-29.48-17.42-19.25-6.84-37.56.51-39.67-4.86-1.42-3.62,8.81-10.06,22.26-21.94,17.18-15.18,21.17-15,22.77-14.73,7.92,1.16,12.29,11.1,17.42,22.77C918.34,1172.23,925.69,1194,920.15,1197.28Z" transform="translate(-709.31 -814.52)"/><path class="cls-16" d="M915,1437.67c-1.14-.76-4.26,2.81-18.67,17.33-12.62,12.72-19,19.17-24,23.33-4.59,3.86-7,5.49-6.66,6,.68,1.17,14.79-4.5,27.33-14,11.3-8.55,15.86-16.06,17.33-18.66C913.3,1446.44,916.51,1438.67,915,1437.67Z" transform="translate(-709.31 -814.52)"/><path class="cls-17" d="M1145.84,841.27c-.95-2.2-22.08,3.22-40.29,13-6.85,3.65-14.64,9.15-30.22,20.15-11.72,8.26-17.58,12.4-17.27,13C1059.53,889.92,1147.88,846,1145.84,841.27Z" transform="translate(-709.31 -814.52)"/></g><g id="Layer_2" data-name="Layer 2"><polygon class="cls-18" points="222.86 534.85 0 496.01 0.06 398.98 223.3 438.33 222.86 534.85"/><polygon class="cls-18" points="563.97 586.61 280.19 541.02 275.47 455.52 559.98 502.12 563.97 586.61"/><polygon class="cls-18" points="200.39 574.29 21.22 544.09 18.61 489.77 198.23 520.62 200.39 574.29"/><polyline class="cls-18" points="515.29 562.56 518.16 625.17 305.68 589.71 302.33 527.87"/><polygon class="cls-18" points="165.71 624.78 44.17 604.91 44.81 540.2 166.64 560.79 165.71 624.78"/><polygon class="cls-18" points="485.13 673.93 340.23 651.38 338.89 593.16 484.16 616.38 485.13 673.93"/><polygon points="560.21 513.8 0.02 440.98 0.12 398.98 556.75 474.18 560.21 513.8"/><path d="M1477.25,1173.5l-207.91,154.83-21.59-31.49L1465,1152.66c.07.09,6.25,9,6.31,9.12C1471.83,1162.58,1477.15,1173.36,1477.25,1173.5Z" transform="translate(-709.31 -814.52)"/><path class="cls-19" d="M729.31,1271.61c-3.41,10.8-2.41,18-1,22.43,3.46,11.1,11.24,11,17.55,24.79,4.66,10.14,2.48,14.68,7.22,20.07,6.73,7.65,15.36,0,20.65,5.9,1.7,1.91,3.91,6.06-1,40.13-2.43,16.8-3.74,21-1,24.79,4.73,6.51,16.32,4.11,24.78,2.36s14.26-3,17.54-8.26c3.83-6.2,1.37-13.17,0-27.15-2-20.08,1.94-20,0-33.05-2.29-15.41-8.5-26.35-12.38-33-3.23-5.57-10-17-21.68-26C759.6,1269,737.4,1270.57,729.31,1271.61Z" transform="translate(-709.31 -814.52)"/><path class="cls-19" d="M1021.31,1316.61c-3.41,10.8-2.41,18-1,22.43,3.46,11.1,11.24,11,17.55,24.79,4.66,10.14,2.48,14.68,7.22,20.07,6.73,7.65,15.36,0,20.65,5.9,1.7,1.91,3.91,6.06-1,40.13-2.43,16.8-3.74,21-1,24.79,4.73,6.51,16.32,4.11,24.78,2.36s14.26-3,17.54-8.26c3.83-6.2,1.37-13.17,0-27.15-2-20.08,1.94-20,0-33.05-2.29-15.41-8.5-26.35-12.38-33-3.23-5.57-10-17-21.68-26C1051.6,1314,1029.4,1315.57,1021.31,1316.61Z" transform="translate(-709.31 -814.52)"/><path class="cls-17" d="M1233.06,919.15c3.84-1.3,12.1,36.82,53.71,84.05,34.29,38.93,51.44,58.39,71.62,72.38,7.08,4.91,23.46,15.71,30.69,35,3.53,9.43,6.87,26.26,0,30.35-12.43,7.38-54.61-29-79.29-56C1242.31,1011,1227.21,921.14,1233.06,919.15Z" transform="translate(-709.31 -814.52)"/><path class="cls-16" d="M1576.9,1388.06c-1.55-.54-4.2,4.9-14,18.7-9.19,12.92-9.94,12.47-14,18.69-9.25,14.12-7.74,20-15.58,37.39-9.74,21.6-20,30-18.69,31.16,2.37,2.15,40.24-23.9,56.08-67C1577.27,1409.06,1579.72,1389.05,1576.9,1388.06Z" transform="translate(-709.31 -814.52)"/></g><g id="Layer_3" data-name="Layer 3"><ellipse class="cls-20" cx="1258.97" cy="1301.06" rx="3" ry="3.37" transform="matrix(0.09, -1, 1, 0.09, -856.03, 1627.51)"/><ellipse class="cls-20" cx="1259.31" cy="1297.2" rx="3" ry="3.37" transform="translate(-851.87 1624.33) rotate(-85.01)"/><rect class="cls-20" x="1257.54" y="1296.2" width="12.08" height="6.62" transform="translate(-591.44 -919.55) rotate(4.99)"/><polygon class="cls-20" points="572.57 480.88 559.98 488.83 558.46 482.92 569.18 476.17 572.57 480.88"/><ellipse class="cls-20" cx="1279.61" cy="1296.41" rx="3.37" ry="3" transform="matrix(1, -0.08, 0.08, 1, -811.83, -704.62)"/><ellipse class="cls-20" cx="1277.3" cy="1292.34" rx="3.37" ry="3" transform="translate(-811.5 -704.83) rotate(-4.73)"/><line class="cls-21" x1="560.19" y1="507.04" x2="559.35" y2="475.08"/><line class="cls-22" x1="551.82" y1="473.76" x2="559.56" y2="474.77"/><ellipse class="cls-20" cx="720.4" cy="1225.54" rx="3" ry="3.37" transform="translate(-1290.13 983.55) rotate(-83.3)"/><ellipse class="cls-20" cx="719.95" cy="1229.39" rx="3" ry="3.37" transform="matrix(0.12, -0.99, 0.99, 0.12, -1294.35, 986.5)"/><polygon class="cls-20" points="0.06 408.35 12.82 409.85 12.04 416.43 0.05 415.02 0.06 408.35"/></g></svg>